<mxfile host="" modified="2021-01-19T12:32:10.012Z" agent="5.0 (Macintosh; Intel Mac OS X 10_16_0) AppleWebKit/537.36 (KHTML, like Gecko) Chrome/81.0.4044.113 Safari/537.36" etag="A0m4s1GAVHcBC_H8ZRFL" version="13.7.9" type="embed" pages="6"><diagram name="Marcar Consulta" id="0783ab3e-0a74-02c8-0abd-f7b4e66b4bec"><mxGraphModel dx="679" dy="349" grid="1" gridSize="10" guides="1" tooltips="1" connect="1" arrows="1" fold="1" page="1" pageScale="1" pageWidth="850" pageHeight="1100" background="#ffffff" math="0" shadow="0"><root><mxCell id="0"/><mxCell id="1" parent="0"/><mxCell id="1c1d494c118603dd-1" value="Diagrama de Actividade - Marcar Consulta" style="swimlane;html=1;childLayout=stackLayout;startSize=20;rounded=0;shadow=0;comic=0;labelBackgroundColor=none;strokeWidth=1;fontFamily=Verdana;fontSize=12;align=center;" parent="1" vertex="1"><mxGeometry x="10" y="10" width="830" height="790" as="geometry"/></mxCell><mxCell id="kjHAQSNKGEX2r20OFE0u-19" style="rounded=0;orthogonalLoop=1;jettySize=auto;html=1;entryX=1;entryY=0.5;entryDx=0;entryDy=0;exitX=0;exitY=0.5;exitDx=0;exitDy=0;" parent="1c1d494c118603dd-1" source="kjHAQSNKGEX2r20OFE0u-11" target="kjHAQSNKGEX2r20OFE0u-18" edge="1"><mxGeometry relative="1" as="geometry"><mxPoint x="380" y="450" as="sourcePoint"/><mxPoint x="308" y="590" as="targetPoint"/></mxGeometry></mxCell><mxCell id="kjHAQSNKGEX2r20OFE0u-20" value="[Sem Vaga]" style="edgeLabel;html=1;align=center;verticalAlign=middle;resizable=0;points=[];" parent="kjHAQSNKGEX2r20OFE0u-19" vertex="1" connectable="0"><mxGeometry x="-0.5546" y="5" relative="1" as="geometry"><mxPoint x="-24" y="-15" as="offset"/></mxGeometry></mxCell><mxCell id="kjHAQSNKGEX2r20OFE0u-39" style="edgeStyle=none;rounded=0;orthogonalLoop=1;jettySize=auto;html=1;entryX=0;entryY=0.5;entryDx=0;entryDy=0;" parent="1c1d494c118603dd-1" source="kjHAQSNKGEX2r20OFE0u-31" target="kjHAQSNKGEX2r20OFE0u-24" edge="1"><mxGeometry relative="1" as="geometry"/></mxCell><mxCell id="kjHAQSNKGEX2r20OFE0u-41" style="edgeStyle=orthogonalEdgeStyle;rounded=0;orthogonalLoop=1;jettySize=auto;html=1;entryX=1;entryY=0.5;entryDx=0;entryDy=0;" parent="1c1d494c118603dd-1" source="kjHAQSNKGEX2r20OFE0u-33" target="kjHAQSNKGEX2r20OFE0u-36" edge="1"><mxGeometry relative="1" as="geometry"/></mxCell><mxCell id="kjHAQSNKGEX2r20OFE0u-48" style="edgeStyle=orthogonalEdgeStyle;rounded=0;orthogonalLoop=1;jettySize=auto;html=1;entryX=0;entryY=0.5;entryDx=0;entryDy=0;" parent="1c1d494c118603dd-1" source="kjHAQSNKGEX2r20OFE0u-47" target="kjHAQSNKGEX2r20OFE0u-8" edge="1"><mxGeometry relative="1" as="geometry"/></mxCell><mxCell id="1c1d494c118603dd-2" value="Utente" style="swimlane;html=1;startSize=20;" parent="1c1d494c118603dd-1" vertex="1"><mxGeometry y="20" width="390" height="770" as="geometry"/></mxCell><mxCell id="60571a20871a0731-4" value="" style="ellipse;whiteSpace=wrap;html=1;rounded=0;shadow=0;comic=0;labelBackgroundColor=none;strokeWidth=1;fillColor=#000000;fontFamily=Verdana;fontSize=12;align=center;" parent="1c1d494c118603dd-2" vertex="1"><mxGeometry x="110" y="50" width="40" height="40" as="geometry"/></mxCell><mxCell id="kjHAQSNKGEX2r20OFE0u-28" style="edgeStyle=orthogonalEdgeStyle;rounded=0;orthogonalLoop=1;jettySize=auto;html=1;entryX=0.5;entryY=0;entryDx=0;entryDy=0;exitX=0.5;exitY=1;exitDx=0;exitDy=0;" parent="1c1d494c118603dd-2" source="60571a20871a0731-4" target="kjHAQSNKGEX2r20OFE0u-25" edge="1"><mxGeometry relative="1" as="geometry"><mxPoint x="130" y="170" as="sourcePoint"/></mxGeometry></mxCell><mxCell id="kjHAQSNKGEX2r20OFE0u-38" style="edgeStyle=none;rounded=0;orthogonalLoop=1;jettySize=auto;html=1;entryX=0.5;entryY=0;entryDx=0;entryDy=0;" parent="1c1d494c118603dd-2" source="kjHAQSNKGEX2r20OFE0u-25" target="kjHAQSNKGEX2r20OFE0u-31" edge="1"><mxGeometry relative="1" as="geometry"/></mxCell><mxCell id="kjHAQSNKGEX2r20OFE0u-25" value="Selecionar Especialidade" style="rounded=1;whiteSpace=wrap;html=1;" parent="1c1d494c118603dd-2" vertex="1"><mxGeometry x="70" y="130" width="120" height="40" as="geometry"/></mxCell><mxCell id="kjHAQSNKGEX2r20OFE0u-31" value="Selecionar Mês" style="rounded=1;whiteSpace=wrap;html=1;" parent="1c1d494c118603dd-2" vertex="1"><mxGeometry x="70" y="210" width="120" height="40" as="geometry"/></mxCell><mxCell id="kjHAQSNKGEX2r20OFE0u-49" style="edgeStyle=orthogonalEdgeStyle;rounded=0;orthogonalLoop=1;jettySize=auto;html=1;entryX=0.5;entryY=0;entryDx=0;entryDy=0;" parent="1c1d494c118603dd-2" source="kjHAQSNKGEX2r20OFE0u-36" target="kjHAQSNKGEX2r20OFE0u-47" edge="1"><mxGeometry relative="1" as="geometry"/></mxCell><mxCell id="kjHAQSNKGEX2r20OFE0u-36" value="Selecionar Dia" style="rounded=1;whiteSpace=wrap;html=1;" parent="1c1d494c118603dd-2" vertex="1"><mxGeometry x="70" y="450" width="120" height="40" as="geometry"/></mxCell><mxCell id="kjHAQSNKGEX2r20OFE0u-45" style="edgeStyle=orthogonalEdgeStyle;rounded=0;orthogonalLoop=1;jettySize=auto;html=1;entryX=0.5;entryY=0;entryDx=0;entryDy=0;" parent="1c1d494c118603dd-2" source="kjHAQSNKGEX2r20OFE0u-18" target="kjHAQSNKGEX2r20OFE0u-44" edge="1"><mxGeometry relative="1" as="geometry"/></mxCell><mxCell id="kjHAQSNKGEX2r20OFE0u-18" value="Abrir Pedido em Lista de Espera" style="rounded=1;whiteSpace=wrap;html=1;" parent="1c1d494c118603dd-2" vertex="1"><mxGeometry x="70" y="290" width="120" height="40" as="geometry"/></mxCell><mxCell id="kjHAQSNKGEX2r20OFE0u-44" value="" style="ellipse;html=1;shape=endState;fillColor=#000000;" parent="1c1d494c118603dd-2" vertex="1"><mxGeometry x="110" y="370" width="40" height="40" as="geometry"/></mxCell><mxCell id="kjHAQSNKGEX2r20OFE0u-47" value="Selecionar Vaga" style="rounded=1;whiteSpace=wrap;html=1;" parent="1c1d494c118603dd-2" vertex="1"><mxGeometry x="70" y="530" width="120" height="40" as="geometry"/></mxCell><mxCell id="1c1d494c118603dd-3" value="Sistema Informático" style="swimlane;html=1;startSize=20;" parent="1c1d494c118603dd-1" vertex="1"><mxGeometry x="390" y="20" width="440" height="770" as="geometry"/></mxCell><mxCell id="kjHAQSNKGEX2r20OFE0u-10" style="edgeStyle=orthogonalEdgeStyle;rounded=0;orthogonalLoop=1;jettySize=auto;html=1;" parent="1c1d494c118603dd-3" source="kjHAQSNKGEX2r20OFE0u-8" target="kjHAQSNKGEX2r20OFE0u-9" edge="1"><mxGeometry relative="1" as="geometry"/></mxCell><mxCell id="kjHAQSNKGEX2r20OFE0u-8" value="Registar Data e Hora" style="rounded=1;whiteSpace=wrap;html=1;" parent="1c1d494c118603dd-3" vertex="1"><mxGeometry x="120" y="530" width="120" height="40" as="geometry"/></mxCell><mxCell id="kjHAQSNKGEX2r20OFE0u-51" style="edgeStyle=orthogonalEdgeStyle;rounded=0;orthogonalLoop=1;jettySize=auto;html=1;entryX=0.5;entryY=0;entryDx=0;entryDy=0;" parent="1c1d494c118603dd-3" source="kjHAQSNKGEX2r20OFE0u-9" target="kjHAQSNKGEX2r20OFE0u-50" edge="1"><mxGeometry relative="1" as="geometry"><mxPoint x="180" y="690" as="targetPoint"/></mxGeometry></mxCell><mxCell id="kjHAQSNKGEX2r20OFE0u-9" value="Remover Vaga do Calendário" style="rounded=1;whiteSpace=wrap;html=1;" parent="1c1d494c118603dd-3" vertex="1"><mxGeometry x="120" y="610" width="120" height="40" as="geometry"/></mxCell><mxCell id="kjHAQSNKGEX2r20OFE0u-11" value="" style="rhombus;whiteSpace=wrap;html=1;" parent="1c1d494c118603dd-3" vertex="1"><mxGeometry x="160" y="290" width="40" height="40" as="geometry"/></mxCell><mxCell id="kjHAQSNKGEX2r20OFE0u-40" style="edgeStyle=orthogonalEdgeStyle;rounded=0;orthogonalLoop=1;jettySize=auto;html=1;entryX=0.5;entryY=0;entryDx=0;entryDy=0;" parent="1c1d494c118603dd-3" source="kjHAQSNKGEX2r20OFE0u-24" target="kjHAQSNKGEX2r20OFE0u-11" edge="1"><mxGeometry relative="1" as="geometry"/></mxCell><mxCell id="kjHAQSNKGEX2r20OFE0u-24" value="Apresentar níveis de ocupação" style="rounded=1;whiteSpace=wrap;html=1;" parent="1c1d494c118603dd-3" vertex="1"><mxGeometry x="120" y="210" width="120" height="40" as="geometry"/></mxCell><mxCell id="kjHAQSNKGEX2r20OFE0u-33" value="Apresentar Dias com Vagas disponíveis" style="rounded=1;whiteSpace=wrap;html=1;" parent="1c1d494c118603dd-3" vertex="1"><mxGeometry x="120" y="450" width="120" height="40" as="geometry"/></mxCell><mxCell id="kjHAQSNKGEX2r20OFE0u-16" style="rounded=0;orthogonalLoop=1;jettySize=auto;html=1;exitX=0.5;exitY=1;exitDx=0;exitDy=0;edgeStyle=orthogonalEdgeStyle;entryX=0.5;entryY=0;entryDx=0;entryDy=0;" parent="1c1d494c118603dd-3" source="kjHAQSNKGEX2r20OFE0u-11" target="kjHAQSNKGEX2r20OFE0u-33" edge="1"><mxGeometry relative="1" as="geometry"><mxPoint x="180" y="430" as="targetPoint"/><mxPoint x="205.5" y="460" as="sourcePoint"/><Array as="points"/></mxGeometry></mxCell><mxCell id="kjHAQSNKGEX2r20OFE0u-17" value="[Com Vaga]" style="edgeLabel;html=1;align=center;verticalAlign=middle;resizable=0;points=[];" parent="kjHAQSNKGEX2r20OFE0u-16" vertex="1" connectable="0"><mxGeometry x="-0.5547" y="-2" relative="1" as="geometry"><mxPoint x="32" y="12" as="offset"/></mxGeometry></mxCell><mxCell id="kjHAQSNKGEX2r20OFE0u-50" value="" style="ellipse;html=1;shape=endState;fillColor=#000000;" parent="1c1d494c118603dd-3" vertex="1"><mxGeometry x="160" y="690" width="40" height="40" as="geometry"/></mxCell></root></mxGraphModel></diagram><diagram id="Ne70lVapPX85LEz8FXPz" name="Desmarcar Consulta"><mxGraphModel dx="2249" dy="737" grid="1" gridSize="10" guides="1" tooltips="1" connect="1" arrows="1" fold="1" page="1" pageScale="1" pageWidth="827" pageHeight="1169" math="0" shadow="0"><root><mxCell id="CgYppBIDY5oI1jkrm0bC-0"/><mxCell id="CgYppBIDY5oI1jkrm0bC-1" parent="CgYppBIDY5oI1jkrm0bC-0"/><mxCell id="MlOuWjEtDycWQlPlWrfE-0" value="Diagrama de Atividade - Desmarcar Consulta" style="swimlane;html=1;childLayout=stackLayout;startSize=20;rounded=0;shadow=0;comic=0;labelBackgroundColor=none;strokeWidth=1;fontFamily=Verdana;fontSize=12;align=center;" parent="CgYppBIDY5oI1jkrm0bC-1" vertex="1"><mxGeometry x="-820" y="10" width="810" height="550" as="geometry"/></mxCell><mxCell id="MlOuWjEtDycWQlPlWrfE-1" value="Utente" style="swimlane;html=1;startSize=20;" parent="MlOuWjEtDycWQlPlWrfE-0" vertex="1"><mxGeometry y="20" width="240" height="530" as="geometry"/></mxCell><mxCell id="UpuWILP65akBoyyvkY-h-2" style="edgeStyle=orthogonalEdgeStyle;rounded=0;orthogonalLoop=1;jettySize=auto;html=1;" parent="MlOuWjEtDycWQlPlWrfE-1" source="UpuWILP65akBoyyvkY-h-0" target="UpuWILP65akBoyyvkY-h-1" edge="1"><mxGeometry relative="1" as="geometry"/></mxCell><mxCell id="UpuWILP65akBoyyvkY-h-0" value="" style="ellipse;whiteSpace=wrap;html=1;rounded=0;shadow=0;comic=0;labelBackgroundColor=none;strokeWidth=1;fillColor=#000000;fontFamily=Verdana;fontSize=12;align=center;" parent="MlOuWjEtDycWQlPlWrfE-1" vertex="1"><mxGeometry x="100" y="50" width="40" height="40" as="geometry"/></mxCell><mxCell id="UpuWILP65akBoyyvkY-h-1" value="Desmarcar Consulta" style="rounded=1;whiteSpace=wrap;html=1;" parent="MlOuWjEtDycWQlPlWrfE-1" vertex="1"><mxGeometry x="60" y="130" width="120" height="40" as="geometry"/></mxCell><mxCell id="UpuWILP65akBoyyvkY-h-4" style="edgeStyle=orthogonalEdgeStyle;rounded=0;orthogonalLoop=1;jettySize=auto;html=1;entryX=0;entryY=0.5;entryDx=0;entryDy=0;" parent="MlOuWjEtDycWQlPlWrfE-0" source="UpuWILP65akBoyyvkY-h-1" target="UpuWILP65akBoyyvkY-h-3" edge="1"><mxGeometry relative="1" as="geometry"/></mxCell><mxCell id="MlOuWjEtDycWQlPlWrfE-10" value="Sistema Informático" style="swimlane;html=1;startSize=20;" parent="MlOuWjEtDycWQlPlWrfE-0" vertex="1"><mxGeometry x="240" y="20" width="330" height="530" as="geometry"/></mxCell><mxCell id="_ZWtZknZ26opzRuC0Pj_-1" style="edgeStyle=orthogonalEdgeStyle;rounded=0;orthogonalLoop=1;jettySize=auto;html=1;entryX=0.5;entryY=0;entryDx=0;entryDy=0;" parent="MlOuWjEtDycWQlPlWrfE-10" source="UpuWILP65akBoyyvkY-h-3" target="_ZWtZknZ26opzRuC0Pj_-0" edge="1"><mxGeometry relative="1" as="geometry"/></mxCell><mxCell id="UpuWILP65akBoyyvkY-h-3" value="Abrir Vaga no Calendário" style="rounded=1;whiteSpace=wrap;html=1;" parent="MlOuWjEtDycWQlPlWrfE-10" vertex="1"><mxGeometry x="20" y="130" width="120" height="40" as="geometry"/></mxCell><mxCell id="_ZWtZknZ26opzRuC0Pj_-3" style="edgeStyle=orthogonalEdgeStyle;rounded=0;orthogonalLoop=1;jettySize=auto;html=1;" parent="MlOuWjEtDycWQlPlWrfE-10" source="_ZWtZknZ26opzRuC0Pj_-0" target="_ZWtZknZ26opzRuC0Pj_-2" edge="1"><mxGeometry relative="1" as="geometry"/></mxCell><mxCell id="_ZWtZknZ26opzRuC0Pj_-0" value="Registar desmarcação por parte do Utente" style="rounded=1;whiteSpace=wrap;html=1;" parent="MlOuWjEtDycWQlPlWrfE-10" vertex="1"><mxGeometry x="20" y="210" width="120" height="40" as="geometry"/></mxCell><mxCell id="_ZWtZknZ26opzRuC0Pj_-2" value="" style="ellipse;html=1;shape=endState;fillColor=#000000;" parent="MlOuWjEtDycWQlPlWrfE-10" vertex="1"><mxGeometry x="60" y="290" width="40" height="40" as="geometry"/></mxCell><mxCell id="_ZWtZknZ26opzRuC0Pj_-13" value="Registar Impossibilidade do Médico" style="rounded=1;whiteSpace=wrap;html=1;" parent="MlOuWjEtDycWQlPlWrfE-10" vertex="1"><mxGeometry x="180" y="130" width="120" height="40" as="geometry"/></mxCell><mxCell id="_ZWtZknZ26opzRuC0Pj_-5" value="Médico" style="swimlane;html=1;startSize=20;" parent="MlOuWjEtDycWQlPlWrfE-0" vertex="1"><mxGeometry x="570" y="20" width="240" height="530" as="geometry"/></mxCell><mxCell id="_ZWtZknZ26opzRuC0Pj_-6" style="edgeStyle=orthogonalEdgeStyle;rounded=0;orthogonalLoop=1;jettySize=auto;html=1;" parent="_ZWtZknZ26opzRuC0Pj_-5" source="_ZWtZknZ26opzRuC0Pj_-7" target="_ZWtZknZ26opzRuC0Pj_-8" edge="1"><mxGeometry relative="1" as="geometry"/></mxCell><mxCell id="_ZWtZknZ26opzRuC0Pj_-7" value="" style="ellipse;whiteSpace=wrap;html=1;rounded=0;shadow=0;comic=0;labelBackgroundColor=none;strokeWidth=1;fillColor=#000000;fontFamily=Verdana;fontSize=12;align=center;" parent="_ZWtZknZ26opzRuC0Pj_-5" vertex="1"><mxGeometry x="90" y="50" width="40" height="40" as="geometry"/></mxCell><mxCell id="_ZWtZknZ26opzRuC0Pj_-8" value="Desmarcar Consulta" style="rounded=1;whiteSpace=wrap;html=1;" parent="_ZWtZknZ26opzRuC0Pj_-5" vertex="1"><mxGeometry x="50" y="130" width="120" height="40" as="geometry"/></mxCell><mxCell id="_ZWtZknZ26opzRuC0Pj_-14" value="" style="ellipse;html=1;shape=endState;fillColor=#000000;" parent="_ZWtZknZ26opzRuC0Pj_-5" vertex="1"><mxGeometry x="90" y="290" width="40" height="40" as="geometry"/></mxCell><mxCell id="79W7Mp-lozM8mOLM_SqW-2" style="edgeStyle=orthogonalEdgeStyle;rounded=0;orthogonalLoop=1;jettySize=auto;html=1;entryX=0.5;entryY=0;entryDx=0;entryDy=0;" parent="_ZWtZknZ26opzRuC0Pj_-5" source="79W7Mp-lozM8mOLM_SqW-0" target="_ZWtZknZ26opzRuC0Pj_-14" edge="1"><mxGeometry relative="1" as="geometry"><mxPoint x="120" y="320" as="targetPoint"/></mxGeometry></mxCell><mxCell id="79W7Mp-lozM8mOLM_SqW-0" value="Abrir Pedido em Lista de Espera" style="rounded=1;whiteSpace=wrap;html=1;" parent="_ZWtZknZ26opzRuC0Pj_-5" vertex="1"><mxGeometry x="50" y="210" width="120" height="40" as="geometry"/></mxCell><mxCell id="_ZWtZknZ26opzRuC0Pj_-15" style="edgeStyle=orthogonalEdgeStyle;rounded=0;orthogonalLoop=1;jettySize=auto;html=1;entryX=1;entryY=0.5;entryDx=0;entryDy=0;exitX=0;exitY=0.5;exitDx=0;exitDy=0;" parent="MlOuWjEtDycWQlPlWrfE-0" source="_ZWtZknZ26opzRuC0Pj_-8" target="_ZWtZknZ26opzRuC0Pj_-13" edge="1"><mxGeometry relative="1" as="geometry"><mxPoint x="520" y="620" as="targetPoint"/><Array as="points"><mxPoint x="580" y="170"/><mxPoint x="580" y="170"/></Array></mxGeometry></mxCell><mxCell id="_ZWtZknZ26opzRuC0Pj_-12" style="edgeStyle=orthogonalEdgeStyle;rounded=0;orthogonalLoop=1;jettySize=auto;html=1;entryX=0;entryY=0.5;entryDx=0;entryDy=0;exitX=0.5;exitY=1;exitDx=0;exitDy=0;" parent="MlOuWjEtDycWQlPlWrfE-0" source="_ZWtZknZ26opzRuC0Pj_-13" target="79W7Mp-lozM8mOLM_SqW-0" edge="1"><mxGeometry relative="1" as="geometry"><Array as="points"><mxPoint x="480" y="250"/></Array></mxGeometry></mxCell></root></mxGraphModel></diagram><diagram id="hjACWqnwwQMpjUhCdRwZ" name="Atribuir Vaga"><mxGraphModel dx="1422" dy="737" grid="1" gridSize="10" guides="1" tooltips="1" connect="1" arrows="1" fold="1" page="1" pageScale="1" pageWidth="827" pageHeight="1169" math="0" shadow="0"><root><mxCell id="JIhR3Z926xbu0zDy_XE4-0"/><mxCell id="JIhR3Z926xbu0zDy_XE4-1" parent="JIhR3Z926xbu0zDy_XE4-0"/><mxCell id="Ymrmu8dd6cX8GdUiC3J9-0" value="Diagrama de Atividade - Atribuir Vaga" style="swimlane;html=1;childLayout=stackLayout;startSize=20;rounded=0;shadow=0;comic=0;labelBackgroundColor=none;strokeWidth=1;fontFamily=Verdana;fontSize=12;align=center;" parent="JIhR3Z926xbu0zDy_XE4-1" vertex="1"><mxGeometry x="10" y="10" width="810" height="870" as="geometry"/></mxCell><mxCell id="F1tVqL81v61FWNl5kkC0-1" style="edgeStyle=orthogonalEdgeStyle;rounded=0;orthogonalLoop=1;jettySize=auto;html=1;entryX=0;entryY=0.5;entryDx=0;entryDy=0;" parent="Ymrmu8dd6cX8GdUiC3J9-0" source="p2I2G10oeReVqa-bGHbU-3" target="F1tVqL81v61FWNl5kkC0-2" edge="1"><mxGeometry relative="1" as="geometry"><mxPoint x="350" y="270" as="targetPoint"/></mxGeometry></mxCell><mxCell id="3wIf3MeOykbopd59SCZj-4" style="edgeStyle=orthogonalEdgeStyle;rounded=0;orthogonalLoop=1;jettySize=auto;html=1;exitX=0.5;exitY=1;exitDx=0;exitDy=0;entryX=0.5;entryY=0;entryDx=0;entryDy=0;" parent="Ymrmu8dd6cX8GdUiC3J9-0" source="F1tVqL81v61FWNl5kkC0-3" target="0gPC1vzrAuqKFCquGP3Y-3" edge="1"><mxGeometry relative="1" as="geometry"><mxPoint x="380" y="640" as="targetPoint"/><Array as="points"><mxPoint x="410" y="590"/><mxPoint x="130" y="590"/></Array></mxGeometry></mxCell><mxCell id="3wIf3MeOykbopd59SCZj-5" value="[Sim]" style="edgeLabel;html=1;align=center;verticalAlign=middle;resizable=0;points=[];" parent="3wIf3MeOykbopd59SCZj-4" vertex="1" connectable="0"><mxGeometry x="-0.1459" y="-1" relative="1" as="geometry"><mxPoint x="-37" y="1" as="offset"/></mxGeometry></mxCell><mxCell id="3wIf3MeOykbopd59SCZj-7" style="edgeStyle=orthogonalEdgeStyle;rounded=0;orthogonalLoop=1;jettySize=auto;html=1;entryX=1;entryY=0.5;entryDx=0;entryDy=0;" parent="Ymrmu8dd6cX8GdUiC3J9-0" source="F1tVqL81v61FWNl5kkC0-3" target="3wIf3MeOykbopd59SCZj-6" edge="1"><mxGeometry relative="1" as="geometry"/></mxCell><mxCell id="3wIf3MeOykbopd59SCZj-8" value="[Não]" style="edgeLabel;html=1;align=center;verticalAlign=middle;resizable=0;points=[];" parent="3wIf3MeOykbopd59SCZj-7" vertex="1" connectable="0"><mxGeometry x="-0.38" y="3" relative="1" as="geometry"><mxPoint as="offset"/></mxGeometry></mxCell><mxCell id="0gPC1vzrAuqKFCquGP3Y-4" style="edgeStyle=orthogonalEdgeStyle;rounded=0;orthogonalLoop=1;jettySize=auto;html=1;entryX=0;entryY=0.5;entryDx=0;entryDy=0;" parent="Ymrmu8dd6cX8GdUiC3J9-0" source="0gPC1vzrAuqKFCquGP3Y-3" target="F1tVqL81v61FWNl5kkC0-6" edge="1"><mxGeometry relative="1" as="geometry"><mxPoint x="630" y="670" as="targetPoint"/></mxGeometry></mxCell><mxCell id="Ymrmu8dd6cX8GdUiC3J9-1" value="Sistema de Vagas" style="swimlane;html=1;startSize=20;" parent="Ymrmu8dd6cX8GdUiC3J9-0" vertex="1"><mxGeometry y="20" width="270" height="850" as="geometry"/></mxCell><mxCell id="xZ8w8HeXdYCcZy7Hwt_y-0" value="" style="ellipse;whiteSpace=wrap;html=1;rounded=0;shadow=0;comic=0;labelBackgroundColor=none;strokeWidth=1;fillColor=#000000;fontFamily=Verdana;fontSize=12;align=center;" parent="Ymrmu8dd6cX8GdUiC3J9-1" vertex="1"><mxGeometry x="110" y="50" width="40" height="40" as="geometry"/></mxCell><mxCell id="p2I2G10oeReVqa-bGHbU-2" style="edgeStyle=orthogonalEdgeStyle;rounded=0;orthogonalLoop=1;jettySize=auto;html=1;entryX=0.5;entryY=0;entryDx=0;entryDy=0;exitX=0.5;exitY=1;exitDx=0;exitDy=0;" parent="Ymrmu8dd6cX8GdUiC3J9-1" source="xZ8w8HeXdYCcZy7Hwt_y-0" target="p2I2G10oeReVqa-bGHbU-1" edge="1"><mxGeometry relative="1" as="geometry"><mxPoint x="130" y="180" as="sourcePoint"/></mxGeometry></mxCell><mxCell id="p2I2G10oeReVqa-bGHbU-4" style="edgeStyle=orthogonalEdgeStyle;rounded=0;orthogonalLoop=1;jettySize=auto;html=1;entryX=0.5;entryY=0;entryDx=0;entryDy=0;" parent="Ymrmu8dd6cX8GdUiC3J9-1" source="p2I2G10oeReVqa-bGHbU-1" target="p2I2G10oeReVqa-bGHbU-3" edge="1"><mxGeometry relative="1" as="geometry"/></mxCell><mxCell id="p2I2G10oeReVqa-bGHbU-1" value="Atribui Vaga a Utente na Lista de Espera" style="rounded=1;whiteSpace=wrap;html=1;" parent="Ymrmu8dd6cX8GdUiC3J9-1" vertex="1"><mxGeometry x="70" y="130" width="120" height="40" as="geometry"/></mxCell><mxCell id="p2I2G10oeReVqa-bGHbU-3" value="Enviar mensagem ao Utente" style="rounded=1;whiteSpace=wrap;html=1;" parent="Ymrmu8dd6cX8GdUiC3J9-1" vertex="1"><mxGeometry x="70" y="210" width="120" height="40" as="geometry"/></mxCell><mxCell id="3wIf3MeOykbopd59SCZj-11" style="edgeStyle=orthogonalEdgeStyle;rounded=0;orthogonalLoop=1;jettySize=auto;html=1;entryX=0.442;entryY=0.025;entryDx=0;entryDy=0;entryPerimeter=0;" parent="Ymrmu8dd6cX8GdUiC3J9-1" source="3wIf3MeOykbopd59SCZj-6" target="3wIf3MeOykbopd59SCZj-9" edge="1"><mxGeometry relative="1" as="geometry"><Array as="points"><mxPoint x="128" y="450"/><mxPoint x="128" y="450"/></Array></mxGeometry></mxCell><mxCell id="3wIf3MeOykbopd59SCZj-6" value="Manter Utente na Lista de Espera" style="rounded=1;whiteSpace=wrap;html=1;" parent="Ymrmu8dd6cX8GdUiC3J9-1" vertex="1"><mxGeometry x="70" y="370" width="120" height="40" as="geometry"/></mxCell><mxCell id="3wIf3MeOykbopd59SCZj-10" style="edgeStyle=orthogonalEdgeStyle;rounded=0;orthogonalLoop=1;jettySize=auto;html=1;entryX=0;entryY=0.5;entryDx=0;entryDy=0;exitX=0;exitY=0.5;exitDx=0;exitDy=0;" parent="Ymrmu8dd6cX8GdUiC3J9-1" source="3wIf3MeOykbopd59SCZj-9" target="p2I2G10oeReVqa-bGHbU-3" edge="1"><mxGeometry relative="1" as="geometry"><Array as="points"><mxPoint x="30" y="510"/><mxPoint x="30" y="230"/></Array></mxGeometry></mxCell><mxCell id="3wIf3MeOykbopd59SCZj-9" value="Atribuir Vaga ao Próximo Utente na Lista de Espera" style="rounded=1;whiteSpace=wrap;html=1;" parent="Ymrmu8dd6cX8GdUiC3J9-1" vertex="1"><mxGeometry x="70" y="490" width="120" height="40" as="geometry"/></mxCell><mxCell id="0gPC1vzrAuqKFCquGP3Y-3" value="Remover Utente da Lista de Espera" style="rounded=1;whiteSpace=wrap;html=1;" parent="Ymrmu8dd6cX8GdUiC3J9-1" vertex="1"><mxGeometry x="70" y="610" width="120" height="40" as="geometry"/></mxCell><mxCell id="Ymrmu8dd6cX8GdUiC3J9-10" value="Utente" style="swimlane;html=1;startSize=20;" parent="Ymrmu8dd6cX8GdUiC3J9-0" vertex="1"><mxGeometry x="270" y="20" width="280" height="850" as="geometry"/></mxCell><mxCell id="L3j1ohq9Skg509rXraUK-1" style="edgeStyle=orthogonalEdgeStyle;rounded=0;orthogonalLoop=1;jettySize=auto;html=1;entryX=0.5;entryY=0;entryDx=0;entryDy=0;" edge="1" parent="Ymrmu8dd6cX8GdUiC3J9-10" source="F1tVqL81v61FWNl5kkC0-2" target="F1tVqL81v61FWNl5kkC0-3"><mxGeometry relative="1" as="geometry"/></mxCell><mxCell id="F1tVqL81v61FWNl5kkC0-2" value="Confirmar Marcação de Consulta" style="rounded=1;whiteSpace=wrap;html=1;" parent="Ymrmu8dd6cX8GdUiC3J9-10" vertex="1"><mxGeometry x="80" y="210" width="120" height="40" as="geometry"/></mxCell><mxCell id="F1tVqL81v61FWNl5kkC0-3" value="" style="rhombus;whiteSpace=wrap;html=1;" parent="Ymrmu8dd6cX8GdUiC3J9-10" vertex="1"><mxGeometry x="120" y="370" width="40" height="40" as="geometry"/></mxCell><mxCell id="Ymrmu8dd6cX8GdUiC3J9-26" value="Sistema Informático" style="swimlane;html=1;startSize=20;" parent="Ymrmu8dd6cX8GdUiC3J9-0" vertex="1"><mxGeometry x="550" y="20" width="260" height="850" as="geometry"/></mxCell><mxCell id="3wIf3MeOykbopd59SCZj-1" style="edgeStyle=orthogonalEdgeStyle;rounded=0;orthogonalLoop=1;jettySize=auto;html=1;entryX=0.5;entryY=0;entryDx=0;entryDy=0;exitX=0.5;exitY=1;exitDx=0;exitDy=0;" parent="Ymrmu8dd6cX8GdUiC3J9-26" source="F1tVqL81v61FWNl5kkC0-6" target="3wIf3MeOykbopd59SCZj-0" edge="1"><mxGeometry relative="1" as="geometry"><mxPoint x="140" y="670" as="sourcePoint"/><mxPoint x="140" y="710" as="targetPoint"/></mxGeometry></mxCell><mxCell id="F1tVqL81v61FWNl5kkC0-6" value="Registar Data e Hora" style="rounded=1;whiteSpace=wrap;html=1;" parent="Ymrmu8dd6cX8GdUiC3J9-26" vertex="1"><mxGeometry x="80" y="610" width="120" height="40" as="geometry"/></mxCell><mxCell id="L3j1ohq9Skg509rXraUK-0" style="edgeStyle=orthogonalEdgeStyle;rounded=0;orthogonalLoop=1;jettySize=auto;html=1;entryX=0.5;entryY=0;entryDx=0;entryDy=0;" edge="1" parent="Ymrmu8dd6cX8GdUiC3J9-26" source="3wIf3MeOykbopd59SCZj-0" target="3wIf3MeOykbopd59SCZj-3"><mxGeometry relative="1" as="geometry"/></mxCell><mxCell id="3wIf3MeOykbopd59SCZj-0" value="Remover Vaga do Calendário" style="rounded=1;whiteSpace=wrap;html=1;" parent="Ymrmu8dd6cX8GdUiC3J9-26" vertex="1"><mxGeometry x="80" y="690" width="120" height="40" as="geometry"/></mxCell><mxCell id="3wIf3MeOykbopd59SCZj-3" value="" style="ellipse;html=1;shape=endState;fillColor=#000000;" parent="Ymrmu8dd6cX8GdUiC3J9-26" vertex="1"><mxGeometry x="120" y="770" width="40" height="40" as="geometry"/></mxCell></root></mxGraphModel></diagram><diagram id="W2p0d8wWr0Qi51jyCaaX" name="Facturação"><mxGraphModel dx="769" dy="415" grid="1" gridSize="10" guides="1" tooltips="1" connect="1" arrows="1" fold="1" page="1" pageScale="1" pageWidth="850" pageHeight="1100" math="0" shadow="0"><root><mxCell id="J8NAGM-Q9F_S-QTOc1Ee-0"/><mxCell id="J8NAGM-Q9F_S-QTOc1Ee-1" parent="J8NAGM-Q9F_S-QTOc1Ee-0"/><mxCell id="J8NAGM-Q9F_S-QTOc1Ee-2" value="Diagrama de Actividade - Facturação" style="swimlane;html=1;childLayout=stackLayout;resizeParent=1;resizeParentMax=0;startSize=20;" parent="J8NAGM-Q9F_S-QTOc1Ee-1" vertex="1"><mxGeometry x="10" y="10" width="830" height="790" as="geometry"/></mxCell><mxCell id="J8NAGM-Q9F_S-QTOc1Ee-3" value="&#10;&#10;&lt;span style=&quot;color: rgb(0, 0, 0); font-family: helvetica; font-size: 12px; font-style: normal; font-weight: 700; letter-spacing: normal; text-align: center; text-indent: 0px; text-transform: none; word-spacing: 0px; background-color: rgb(248, 249, 250); display: inline; float: none;&quot;&gt;Sistema Informático&lt;/span&gt;&#10;&#10;" style="swimlane;html=1;startSize=20;" parent="J8NAGM-Q9F_S-QTOc1Ee-2" vertex="1"><mxGeometry y="20" width="210" height="770" as="geometry"/></mxCell><mxCell id="J8NAGM-Q9F_S-QTOc1Ee-4" style="edgeStyle=orthogonalEdgeStyle;rounded=0;orthogonalLoop=1;jettySize=auto;html=1;entryX=0.5;entryY=0;entryDx=0;entryDy=0;" parent="J8NAGM-Q9F_S-QTOc1Ee-3" source="J8NAGM-Q9F_S-QTOc1Ee-5" target="J8NAGM-Q9F_S-QTOc1Ee-7" edge="1"><mxGeometry relative="1" as="geometry"/></mxCell><mxCell id="J8NAGM-Q9F_S-QTOc1Ee-5" value="" style="ellipse;whiteSpace=wrap;html=1;strokeColor=#000000;fillColor=#000000;" parent="J8NAGM-Q9F_S-QTOc1Ee-3" vertex="1"><mxGeometry x="70" y="30" width="40" height="40" as="geometry"/></mxCell><mxCell id="J8NAGM-Q9F_S-QTOc1Ee-6" style="edgeStyle=orthogonalEdgeStyle;rounded=0;orthogonalLoop=1;jettySize=auto;html=1;exitX=0.5;exitY=1;exitDx=0;exitDy=0;" parent="J8NAGM-Q9F_S-QTOc1Ee-3" source="J8NAGM-Q9F_S-QTOc1Ee-7" target="J8NAGM-Q9F_S-QTOc1Ee-8" edge="1"><mxGeometry relative="1" as="geometry"/></mxCell><mxCell id="J8NAGM-Q9F_S-QTOc1Ee-7" value="Fecho da consulta" style="rounded=1;whiteSpace=wrap;html=1;" parent="J8NAGM-Q9F_S-QTOc1Ee-3" vertex="1"><mxGeometry x="30" y="100" width="120" height="40" as="geometry"/></mxCell><mxCell id="J8NAGM-Q9F_S-QTOc1Ee-8" value="Emitir Pedido de Facturação" style="rounded=1;whiteSpace=wrap;html=1;" parent="J8NAGM-Q9F_S-QTOc1Ee-3" vertex="1"><mxGeometry x="30" y="190" width="120" height="40" as="geometry"/></mxCell><mxCell id="J8NAGM-Q9F_S-QTOc1Ee-9" value="Actualiza estado da consulta para pago" style="rounded=1;whiteSpace=wrap;html=1;strokeColor=#000000;fillColor=#FFFFFF;" parent="J8NAGM-Q9F_S-QTOc1Ee-3" vertex="1"><mxGeometry x="30" y="550" width="120" height="40" as="geometry"/></mxCell><mxCell id="J8NAGM-Q9F_S-QTOc1Ee-10" value="Sistema de Facturação" style="swimlane;html=1;startSize=20;" parent="J8NAGM-Q9F_S-QTOc1Ee-2" vertex="1"><mxGeometry x="210" y="20" width="210" height="770" as="geometry"/></mxCell><mxCell id="J8NAGM-Q9F_S-QTOc1Ee-12" value="Emitir número da factura" style="rounded=1;whiteSpace=wrap;html=1;" parent="J8NAGM-Q9F_S-QTOc1Ee-10" vertex="1"><mxGeometry x="30" y="190" width="120" height="40" as="geometry"/></mxCell><mxCell id="hae66zYM6cZnedtXZoFX-2" style="edgeStyle=orthogonalEdgeStyle;rounded=0;orthogonalLoop=1;jettySize=auto;html=1;entryX=0.6;entryY=-1;entryDx=0;entryDy=0;entryPerimeter=0;" parent="J8NAGM-Q9F_S-QTOc1Ee-10" source="J8NAGM-Q9F_S-QTOc1Ee-14" target="J8NAGM-Q9F_S-QTOc1Ee-17" edge="1"><mxGeometry relative="1" as="geometry"/></mxCell><mxCell id="J8NAGM-Q9F_S-QTOc1Ee-14" value="Emitir factura" style="rounded=1;whiteSpace=wrap;html=1;" parent="J8NAGM-Q9F_S-QTOc1Ee-10" vertex="1"><mxGeometry x="30" y="550" width="120" height="40" as="geometry"/></mxCell><mxCell id="hae66zYM6cZnedtXZoFX-0" style="edgeStyle=orthogonalEdgeStyle;rounded=0;orthogonalLoop=1;jettySize=auto;html=1;entryX=0.5;entryY=0;entryDx=0;entryDy=0;" parent="J8NAGM-Q9F_S-QTOc1Ee-10" source="J8NAGM-Q9F_S-QTOc1Ee-16" target="J8NAGM-Q9F_S-QTOc1Ee-14" edge="1"><mxGeometry relative="1" as="geometry"><Array as="points"><mxPoint x="90" y="510"/><mxPoint x="90" y="510"/></Array></mxGeometry></mxCell><mxCell id="J8NAGM-Q9F_S-QTOc1Ee-16" value="" style="rounded=0;whiteSpace=wrap;html=1;strokeColor=#000000;fillColor=#000000;" parent="J8NAGM-Q9F_S-QTOc1Ee-10" vertex="1"><mxGeometry x="-150" y="500" width="400" height="5" as="geometry"/></mxCell><mxCell id="hae66zYM6cZnedtXZoFX-4" style="edgeStyle=orthogonalEdgeStyle;rounded=0;orthogonalLoop=1;jettySize=auto;html=1;entryX=0.5;entryY=0;entryDx=0;entryDy=0;" parent="J8NAGM-Q9F_S-QTOc1Ee-10" source="J8NAGM-Q9F_S-QTOc1Ee-17" target="J8NAGM-Q9F_S-QTOc1Ee-19" edge="1"><mxGeometry relative="1" as="geometry"><Array as="points"><mxPoint x="90" y="660"/><mxPoint x="90" y="660"/></Array></mxGeometry></mxCell><mxCell id="J8NAGM-Q9F_S-QTOc1Ee-17" value="" style="rounded=0;whiteSpace=wrap;html=1;strokeColor=#000000;fillColor=#000000;" parent="J8NAGM-Q9F_S-QTOc1Ee-10" vertex="1"><mxGeometry x="-150" y="640" width="400" height="5" as="geometry"/></mxCell><mxCell id="J8NAGM-Q9F_S-QTOc1Ee-19" value="" style="ellipse;html=1;shape=endState;fillColor=#000000;aspect=fixed;" parent="J8NAGM-Q9F_S-QTOc1Ee-10" vertex="1"><mxGeometry x="70" y="710" width="40" height="40" as="geometry"/></mxCell><mxCell id="hFARzTg8RkkJi9mNSzcq-12" value="Esperar número de Factura" style="html=1;whiteSpace=wrap;rounded=1;dropTarget=0;" parent="J8NAGM-Q9F_S-QTOc1Ee-10" vertex="1"><mxGeometry x="30" y="270" width="120" height="40" as="geometry"/></mxCell><mxCell id="hFARzTg8RkkJi9mNSzcq-13" value="" style="shape=mxgraph.bpmn.timer_start;perimeter=ellipsePerimeter;html=1;verticalLabelPosition=bottom;verticalAlign=top;outlineConnect=0;" parent="hFARzTg8RkkJi9mNSzcq-12" vertex="1"><mxGeometry x="1" y="1" width="30" height="30" relative="1" as="geometry"><mxPoint x="-40" y="-15" as="offset"/></mxGeometry></mxCell><mxCell id="hFARzTg8RkkJi9mNSzcq-15" style="edgeStyle=orthogonalEdgeStyle;rounded=0;orthogonalLoop=1;jettySize=auto;html=1;exitX=0.5;exitY=1;exitDx=0;exitDy=0;entryX=0.5;entryY=0;entryDx=0;entryDy=0;" parent="J8NAGM-Q9F_S-QTOc1Ee-10" source="J8NAGM-Q9F_S-QTOc1Ee-12" target="hFARzTg8RkkJi9mNSzcq-12" edge="1"><mxGeometry relative="1" as="geometry"><mxPoint x="70" y="320" as="targetPoint"/><mxPoint x="110" y="230" as="sourcePoint"/><Array as="points"/></mxGeometry></mxCell><mxCell id="J8NAGM-Q9F_S-QTOc1Ee-23" value="Recepcionista" style="swimlane;html=1;startSize=20;" parent="J8NAGM-Q9F_S-QTOc1Ee-2" vertex="1"><mxGeometry x="420" y="20" width="210" height="770" as="geometry"/></mxCell><mxCell id="J8NAGM-Q9F_S-QTOc1Ee-24" value="Apresentar valor a pagar" style="rounded=1;whiteSpace=wrap;html=1;" parent="J8NAGM-Q9F_S-QTOc1Ee-23" vertex="1"><mxGeometry x="30" y="270" width="120" height="40" as="geometry"/></mxCell><mxCell id="J8NAGM-Q9F_S-QTOc1Ee-25" value="Registar pagamento" style="rounded=1;whiteSpace=wrap;html=1;" parent="J8NAGM-Q9F_S-QTOc1Ee-23" vertex="1"><mxGeometry x="30" y="430" width="120" height="40" as="geometry"/></mxCell><mxCell id="J8NAGM-Q9F_S-QTOc1Ee-26" style="edgeStyle=orthogonalEdgeStyle;rounded=0;orthogonalLoop=1;jettySize=auto;html=1;entryX=0.5;entryY=0;entryDx=0;entryDy=0;exitX=0.5;exitY=1;exitDx=0;exitDy=0;" parent="J8NAGM-Q9F_S-QTOc1Ee-23" source="J8NAGM-Q9F_S-QTOc1Ee-27" target="J8NAGM-Q9F_S-QTOc1Ee-25" edge="1"><mxGeometry relative="1" as="geometry"><mxPoint x="180" y="410" as="sourcePoint"/></mxGeometry></mxCell><mxCell id="J8NAGM-Q9F_S-QTOc1Ee-27" value="Receber pagamento" style="rounded=1;whiteSpace=wrap;html=1;" parent="J8NAGM-Q9F_S-QTOc1Ee-23" vertex="1"><mxGeometry x="30" y="350" width="120" height="40" as="geometry"/></mxCell><mxCell id="J8NAGM-Q9F_S-QTOc1Ee-28" style="edgeStyle=orthogonalEdgeStyle;rounded=0;orthogonalLoop=1;jettySize=auto;html=1;exitX=0.5;exitY=1;exitDx=0;exitDy=0;entryX=1;entryY=0.5;entryDx=0;entryDy=0;" parent="J8NAGM-Q9F_S-QTOc1Ee-2" source="J8NAGM-Q9F_S-QTOc1Ee-31" target="J8NAGM-Q9F_S-QTOc1Ee-27" edge="1"><mxGeometry relative="1" as="geometry"/></mxCell><mxCell id="J8NAGM-Q9F_S-QTOc1Ee-29" style="edgeStyle=orthogonalEdgeStyle;rounded=0;orthogonalLoop=1;jettySize=auto;html=1;exitX=1;exitY=0.5;exitDx=0;exitDy=0;entryX=0;entryY=0.5;entryDx=0;entryDy=0;" parent="J8NAGM-Q9F_S-QTOc1Ee-2" source="J8NAGM-Q9F_S-QTOc1Ee-24" target="J8NAGM-Q9F_S-QTOc1Ee-31" edge="1"><mxGeometry relative="1" as="geometry"/></mxCell><mxCell id="J8NAGM-Q9F_S-QTOc1Ee-30" value="Utente" style="swimlane;html=1;startSize=20;" parent="J8NAGM-Q9F_S-QTOc1Ee-2" vertex="1"><mxGeometry x="630" y="20" width="200" height="770" as="geometry"/></mxCell><mxCell id="J8NAGM-Q9F_S-QTOc1Ee-31" value="Pagar consulta" style="rounded=1;whiteSpace=wrap;html=1;" parent="J8NAGM-Q9F_S-QTOc1Ee-30" vertex="1"><mxGeometry x="30" y="270" width="120" height="40" as="geometry"/></mxCell><mxCell id="J8NAGM-Q9F_S-QTOc1Ee-32" value="" style="edgeStyle=orthogonalEdgeStyle;rounded=0;orthogonalLoop=1;jettySize=auto;html=1;entryX=0;entryY=0.5;entryDx=0;entryDy=0;exitX=1;exitY=0.5;exitDx=0;exitDy=0;labelBackgroundColor=none;align=center;verticalAlign=middle;horizontal=1;" parent="J8NAGM-Q9F_S-QTOc1Ee-2" source="hFARzTg8RkkJi9mNSzcq-12" target="J8NAGM-Q9F_S-QTOc1Ee-24" edge="1"><mxGeometry x="-0.3913" y="-10" relative="1" as="geometry"><mxPoint as="offset"/></mxGeometry></mxCell><mxCell id="J8NAGM-Q9F_S-QTOc1Ee-34" value="[não recebe número de factura&lt;br style=&quot;font-size: 10px;&quot;&gt;dentro de 60s]" style="edgeStyle=orthogonalEdgeStyle;rounded=0;orthogonalLoop=1;jettySize=auto;html=1;exitX=0.5;exitY=1;exitDx=0;exitDy=0;entryX=0.5;entryY=1;entryDx=0;entryDy=0;labelBackgroundColor=none;fontSize=10;verticalAlign=middle;labelPosition=center;verticalLabelPosition=middle;align=center;exitPerimeter=0;" parent="J8NAGM-Q9F_S-QTOc1Ee-2" source="hFARzTg8RkkJi9mNSzcq-13" target="J8NAGM-Q9F_S-QTOc1Ee-8" edge="1"><mxGeometry x="0.2105" y="10" relative="1" as="geometry"><Array as="points"><mxPoint x="325" y="370"/><mxPoint x="90" y="370"/></Array><mxPoint as="offset"/></mxGeometry></mxCell><mxCell id="J8NAGM-Q9F_S-QTOc1Ee-35" style="edgeStyle=orthogonalEdgeStyle;rounded=0;orthogonalLoop=1;jettySize=auto;html=1;exitX=1;exitY=0.5;exitDx=0;exitDy=0;entryX=0;entryY=0.5;entryDx=0;entryDy=0;labelBackgroundColor=none;fontSize=10;" parent="J8NAGM-Q9F_S-QTOc1Ee-2" source="J8NAGM-Q9F_S-QTOc1Ee-8" target="J8NAGM-Q9F_S-QTOc1Ee-12" edge="1"><mxGeometry relative="1" as="geometry"/></mxCell><mxCell id="hae66zYM6cZnedtXZoFX-1" style="edgeStyle=orthogonalEdgeStyle;rounded=0;orthogonalLoop=1;jettySize=auto;html=1;entryX=0.5;entryY=0;entryDx=0;entryDy=0;exitX=0.25;exitY=1;exitDx=0;exitDy=0;" parent="J8NAGM-Q9F_S-QTOc1Ee-2" source="J8NAGM-Q9F_S-QTOc1Ee-16" target="J8NAGM-Q9F_S-QTOc1Ee-9" edge="1"><mxGeometry relative="1" as="geometry"><Array as="points"><mxPoint x="90" y="525"/></Array></mxGeometry></mxCell><mxCell id="-fRzduPL4mKqQmQGckmS-12" style="edgeStyle=orthogonalEdgeStyle;rounded=0;orthogonalLoop=1;jettySize=auto;html=1;entryX=0.075;entryY=-0.4;entryDx=0;entryDy=0;entryPerimeter=0;" parent="J8NAGM-Q9F_S-QTOc1Ee-2" source="J8NAGM-Q9F_S-QTOc1Ee-9" target="J8NAGM-Q9F_S-QTOc1Ee-17" edge="1"><mxGeometry relative="1" as="geometry"/></mxCell><mxCell id="-fRzduPL4mKqQmQGckmS-13" style="edgeStyle=orthogonalEdgeStyle;rounded=0;orthogonalLoop=1;jettySize=auto;html=1;entryX=0.6;entryY=-0.6;entryDx=0;entryDy=0;entryPerimeter=0;" parent="J8NAGM-Q9F_S-QTOc1Ee-2" source="J8NAGM-Q9F_S-QTOc1Ee-25" target="J8NAGM-Q9F_S-QTOc1Ee-16" edge="1"><mxGeometry relative="1" as="geometry"><Array as="points"><mxPoint x="300" y="470"/></Array></mxGeometry></mxCell></root></mxGraphModel></diagram><diagram name="Check-in Utente" id="P01no7tgesznMPKdqr_L"><mxGraphModel dx="679" dy="349" grid="1" gridSize="10" guides="1" tooltips="1" connect="1" arrows="1" fold="1" page="1" pageScale="1" pageWidth="827" pageHeight="1169" math="0" shadow="0"><root><mxCell id="bafPzPqKLuY_yBNXklir-0"/><mxCell id="bafPzPqKLuY_yBNXklir-1" parent="bafPzPqKLuY_yBNXklir-0"/><mxCell id="Xsw5yw4zyk3_1p55zwhL-0" value="Check-in Utente" style="swimlane;html=1;childLayout=stackLayout;startSize=20;rounded=0;shadow=0;comic=0;labelBackgroundColor=none;strokeWidth=1;fontFamily=Verdana;fontSize=12;align=center;" parent="bafPzPqKLuY_yBNXklir-1" vertex="1"><mxGeometry x="160" y="20" width="1130" height="990" as="geometry"/></mxCell><mxCell id="Xsw5yw4zyk3_1p55zwhL-1" value="Utente" style="swimlane;html=1;startSize=20;" parent="Xsw5yw4zyk3_1p55zwhL-0" vertex="1"><mxGeometry y="20" width="340" height="970" as="geometry"/></mxCell><mxCell id="Xsw5yw4zyk3_1p55zwhL-2" value="" style="ellipse;fillColor=#000000;strokeColor=none;" parent="Xsw5yw4zyk3_1p55zwhL-1" vertex="1"><mxGeometry x="150" y="50" width="30" height="30" as="geometry"/></mxCell><mxCell id="Xsw5yw4zyk3_1p55zwhL-3" style="edgeStyle=orthogonalEdgeStyle;rounded=0;orthogonalLoop=1;jettySize=auto;html=1;exitX=0.5;exitY=1;exitDx=0;exitDy=0;entryX=0.5;entryY=0;entryDx=0;entryDy=0;" parent="Xsw5yw4zyk3_1p55zwhL-1" source="Xsw5yw4zyk3_1p55zwhL-2" edge="1"><mxGeometry relative="1" as="geometry"><mxPoint x="165" y="130" as="targetPoint"/></mxGeometry></mxCell><mxCell id="Xsw5yw4zyk3_1p55zwhL-4" value="Comparecer na unidade de sáude" style="rounded=1;whiteSpace=wrap;html=1;" parent="Xsw5yw4zyk3_1p55zwhL-1" vertex="1"><mxGeometry x="105" y="130" width="120" height="60" as="geometry"/></mxCell><mxCell id="Xsw5yw4zyk3_1p55zwhL-5" value="" style="rhombus;whiteSpace=wrap;html=1;" parent="Xsw5yw4zyk3_1p55zwhL-1" vertex="1"><mxGeometry x="147.5" y="220" width="35" height="50" as="geometry"/></mxCell><mxCell id="Xsw5yw4zyk3_1p55zwhL-6" style="edgeStyle=orthogonalEdgeStyle;rounded=0;orthogonalLoop=1;jettySize=auto;html=1;exitX=0.5;exitY=1;exitDx=0;exitDy=0;" parent="Xsw5yw4zyk3_1p55zwhL-1" source="Xsw5yw4zyk3_1p55zwhL-4" target="Xsw5yw4zyk3_1p55zwhL-5" edge="1"><mxGeometry relative="1" as="geometry"><mxPoint x="165" y="230" as="targetPoint"/></mxGeometry></mxCell><mxCell id="9giA3hUkLPzcmjXlu6PJ-0" value="[Opta por check-in &lt;br&gt;automático]" style="text;html=1;align=center;verticalAlign=middle;resizable=0;points=[];autosize=1;" parent="Xsw5yw4zyk3_1p55zwhL-1" vertex="1"><mxGeometry x="199" y="215" width="110" height="30" as="geometry"/></mxCell><mxCell id="9giA3hUkLPzcmjXlu6PJ-2" value="[Opta por check-in &lt;br&gt;manual]" style="text;html=1;align=center;verticalAlign=middle;resizable=0;points=[];autosize=1;" parent="Xsw5yw4zyk3_1p55zwhL-1" vertex="1"><mxGeometry x="199" y="260" width="110" height="30" as="geometry"/></mxCell><mxCell id="Xsw5yw4zyk3_1p55zwhL-9" value="Leitor de cartões" style="swimlane;html=1;startSize=20;" parent="Xsw5yw4zyk3_1p55zwhL-0" vertex="1"><mxGeometry x="340" y="20" width="250" height="970" as="geometry"/></mxCell><mxCell id="Xsw5yw4zyk3_1p55zwhL-8" value="Fazer check-in&lt;br&gt;automático" style="rounded=1;whiteSpace=wrap;html=1;" parent="Xsw5yw4zyk3_1p55zwhL-9" vertex="1"><mxGeometry x="65" y="95" width="120" height="50" as="geometry"/></mxCell><mxCell id="Xsw5yw4zyk3_1p55zwhL-13" value="Recepcionista" style="swimlane;html=1;startSize=20;" parent="Xsw5yw4zyk3_1p55zwhL-0" vertex="1"><mxGeometry x="590" y="20" width="250" height="970" as="geometry"><mxRectangle x="500" y="20" width="30" height="970" as="alternateBounds"/></mxGeometry></mxCell><mxCell id="Xsw5yw4zyk3_1p55zwhL-56" value="&lt;span&gt;Fazer check-in ao balcão&lt;/span&gt;" style="rounded=1;whiteSpace=wrap;html=1;" parent="Xsw5yw4zyk3_1p55zwhL-13" vertex="1"><mxGeometry x="70" y="95" width="120" height="50" as="geometry"/></mxCell><mxCell id="Xsw5yw4zyk3_1p55zwhL-17" value="Sistema informático" style="swimlane;html=1;startSize=20;" parent="Xsw5yw4zyk3_1p55zwhL-0" vertex="1"><mxGeometry x="840" y="20" width="290" height="970" as="geometry"><mxRectangle x="500" y="20" width="30" height="970" as="alternateBounds"/></mxGeometry></mxCell><mxCell id="Xsw5yw4zyk3_1p55zwhL-64" style="edgeStyle=orthogonalEdgeStyle;rounded=0;orthogonalLoop=1;jettySize=auto;html=1;exitX=0.5;exitY=1;exitDx=0;exitDy=0;entryX=0.5;entryY=0;entryDx=0;entryDy=0;" parent="Xsw5yw4zyk3_1p55zwhL-17" source="Xsw5yw4zyk3_1p55zwhL-53" target="Xsw5yw4zyk3_1p55zwhL-54" edge="1"><mxGeometry relative="1" as="geometry"/></mxCell><mxCell id="Xsw5yw4zyk3_1p55zwhL-53" value="Registar hora de entrada do utente" style="rounded=1;whiteSpace=wrap;html=1;" parent="Xsw5yw4zyk3_1p55zwhL-17" vertex="1"><mxGeometry x="90" y="90" width="120" height="60" as="geometry"/></mxCell><mxCell id="9giA3hUkLPzcmjXlu6PJ-3" style="edgeStyle=orthogonalEdgeStyle;rounded=0;orthogonalLoop=1;jettySize=auto;html=1;exitX=0.5;exitY=1;exitDx=0;exitDy=0;entryX=0.5;entryY=0;entryDx=0;entryDy=0;" parent="Xsw5yw4zyk3_1p55zwhL-17" source="Xsw5yw4zyk3_1p55zwhL-54" target="7CPrJkXIrBm-ejwcja7y-0" edge="1"><mxGeometry relative="1" as="geometry"/></mxCell><mxCell id="Xsw5yw4zyk3_1p55zwhL-54" value="Imprimir senha de espera" style="rounded=1;whiteSpace=wrap;html=1;" parent="Xsw5yw4zyk3_1p55zwhL-17" vertex="1"><mxGeometry x="90" y="200" width="120" height="60" as="geometry"/></mxCell><mxCell id="7CPrJkXIrBm-ejwcja7y-0" value="" style="ellipse;html=1;shape=endState;fillColor=#000000;strokeColor=#000000;" parent="Xsw5yw4zyk3_1p55zwhL-17" vertex="1"><mxGeometry x="135" y="310" width="30" height="30" as="geometry"/></mxCell><mxCell id="Xsw5yw4zyk3_1p55zwhL-57" style="edgeStyle=orthogonalEdgeStyle;rounded=0;orthogonalLoop=1;jettySize=auto;html=1;exitX=1;exitY=0.5;exitDx=0;exitDy=0;entryX=0;entryY=0.5;entryDx=0;entryDy=0;" parent="Xsw5yw4zyk3_1p55zwhL-0" source="Xsw5yw4zyk3_1p55zwhL-5" target="Xsw5yw4zyk3_1p55zwhL-8" edge="1"><mxGeometry relative="1" as="geometry"><Array as="points"><mxPoint x="320" y="265"/><mxPoint x="320" y="140"/></Array></mxGeometry></mxCell><mxCell id="Xsw5yw4zyk3_1p55zwhL-58" style="edgeStyle=orthogonalEdgeStyle;rounded=0;orthogonalLoop=1;jettySize=auto;html=1;exitX=0.5;exitY=1;exitDx=0;exitDy=0;entryX=0;entryY=0.5;entryDx=0;entryDy=0;" parent="Xsw5yw4zyk3_1p55zwhL-0" source="Xsw5yw4zyk3_1p55zwhL-5" target="Xsw5yw4zyk3_1p55zwhL-56" edge="1"><mxGeometry relative="1" as="geometry"><Array as="points"><mxPoint x="165" y="310"/><mxPoint x="620" y="310"/><mxPoint x="620" y="140"/></Array></mxGeometry></mxCell><mxCell id="Xsw5yw4zyk3_1p55zwhL-61" style="edgeStyle=orthogonalEdgeStyle;rounded=0;orthogonalLoop=1;jettySize=auto;html=1;exitX=0.5;exitY=1;exitDx=0;exitDy=0;entryX=0;entryY=0.5;entryDx=0;entryDy=0;" parent="Xsw5yw4zyk3_1p55zwhL-0" source="Xsw5yw4zyk3_1p55zwhL-8" target="Xsw5yw4zyk3_1p55zwhL-53" edge="1"><mxGeometry relative="1" as="geometry"><Array as="points"><mxPoint x="465" y="200"/><mxPoint x="880" y="200"/><mxPoint x="880" y="140"/><mxPoint x="925" y="140"/></Array></mxGeometry></mxCell><mxCell id="Xsw5yw4zyk3_1p55zwhL-65" style="edgeStyle=orthogonalEdgeStyle;rounded=0;orthogonalLoop=1;jettySize=auto;html=1;exitX=1;exitY=0.5;exitDx=0;exitDy=0;entryX=0;entryY=0.5;entryDx=0;entryDy=0;" parent="Xsw5yw4zyk3_1p55zwhL-0" source="Xsw5yw4zyk3_1p55zwhL-56" target="Xsw5yw4zyk3_1p55zwhL-53" edge="1"><mxGeometry relative="1" as="geometry"/></mxCell></root></mxGraphModel></diagram><diagram name="Gestão consulta" id="z3dW7ru7i6Lu6sHJstYc"><mxGraphModel dx="679" dy="349" grid="1" gridSize="10" guides="1" tooltips="1" connect="1" arrows="1" fold="1" page="1" pageScale="1" pageWidth="850" pageHeight="1100" background="#ffffff" math="0" shadow="0"><root><mxCell id="0"/><mxCell id="1" parent="0"/><mxCell id="1c1d494c118603dd-1" value="Gestão de consultas" style="swimlane;html=1;childLayout=stackLayout;startSize=20;rounded=0;shadow=0;comic=0;labelBackgroundColor=none;strokeWidth=1;fontFamily=Verdana;fontSize=12;align=center;" parent="1" vertex="1"><mxGeometry x="40" y="20" width="860" height="1210" as="geometry"/></mxCell><mxCell id="PPlFcc_Is0YEWgRI8YDI-27" style="edgeStyle=orthogonalEdgeStyle;rounded=0;orthogonalLoop=1;jettySize=auto;html=1;exitX=0.5;exitY=1;exitDx=0;exitDy=0;entryX=0.197;entryY=0.941;entryDx=0;entryDy=0;entryPerimeter=0;strokeColor=#000000;" parent="1c1d494c118603dd-1" source="WqlgoDypYTSDNp3f7rmW-1" target="PPlFcc_Is0YEWgRI8YDI-7" edge="1"><mxGeometry relative="1" as="geometry"/></mxCell><mxCell id="PPlFcc_Is0YEWgRI8YDI-31" style="edgeStyle=orthogonalEdgeStyle;rounded=0;orthogonalLoop=1;jettySize=auto;html=1;exitX=0.5;exitY=0;exitDx=0;exitDy=0;strokeColor=#000000;" parent="1c1d494c118603dd-1" source="PPlFcc_Is0YEWgRI8YDI-23" target="Jv1jY6s400H1Gnc8sTqj-1" edge="1"><mxGeometry relative="1" as="geometry"><Array as="points"><mxPoint x="634" y="455"/><mxPoint x="272" y="455"/></Array></mxGeometry></mxCell><mxCell id="PPlFcc_Is0YEWgRI8YDI-32" style="edgeStyle=orthogonalEdgeStyle;rounded=0;orthogonalLoop=1;jettySize=auto;html=1;exitX=0.5;exitY=1;exitDx=0;exitDy=0;exitPerimeter=0;strokeColor=#000000;entryX=0.5;entryY=0;entryDx=0;entryDy=0;" parent="1c1d494c118603dd-1" source="Jv1jY6s400H1Gnc8sTqj-2" target="WqlgoDypYTSDNp3f7rmW-78" edge="1"><mxGeometry relative="1" as="geometry"><Array as="points"><mxPoint x="315" y="580"/><mxPoint x="674" y="580"/></Array></mxGeometry></mxCell><mxCell id="1c1d494c118603dd-2" value="Médico" style="swimlane;html=1;startSize=20;" parent="1c1d494c118603dd-1" vertex="1"><mxGeometry y="20" width="490" height="1190" as="geometry"/></mxCell><mxCell id="FbqYYx2SHmx5tCG4WL0g-28" value="" style="ellipse;fillColor=#000000;strokeColor=none;" parent="1c1d494c118603dd-2" vertex="1"><mxGeometry x="180" y="50" width="30" height="30" as="geometry"/></mxCell><mxCell id="FbqYYx2SHmx5tCG4WL0g-29" style="edgeStyle=orthogonalEdgeStyle;rounded=0;orthogonalLoop=1;jettySize=auto;html=1;exitX=0.5;exitY=1;exitDx=0;exitDy=0;entryX=0.5;entryY=0;entryDx=0;entryDy=0;" parent="1c1d494c118603dd-2" source="FbqYYx2SHmx5tCG4WL0g-28" edge="1"><mxGeometry relative="1" as="geometry"><mxPoint x="195" y="130" as="targetPoint"/></mxGeometry></mxCell><mxCell id="WqlgoDypYTSDNp3f7rmW-1" value="Chamar próximo utente" style="rounded=1;whiteSpace=wrap;html=1;" parent="1c1d494c118603dd-2" vertex="1"><mxGeometry x="135" y="130" width="120" height="60" as="geometry"/></mxCell><mxCell id="WqlgoDypYTSDNp3f7rmW-92" style="edgeStyle=orthogonalEdgeStyle;rounded=0;orthogonalLoop=1;jettySize=auto;html=1;exitX=0.5;exitY=1;exitDx=0;exitDy=0;entryX=0.5;entryY=0;entryDx=0;entryDy=0;" parent="1c1d494c118603dd-2" source="WqlgoDypYTSDNp3f7rmW-4" edge="1"><mxGeometry relative="1" as="geometry"><mxPoint x="110" y="859" as="targetPoint"/></mxGeometry></mxCell><mxCell id="WqlgoDypYTSDNp3f7rmW-4" value="Realizar consulta" style="rounded=1;whiteSpace=wrap;html=1;" parent="1c1d494c118603dd-2" vertex="1"><mxGeometry x="50" y="749" width="120" height="60" as="geometry"/></mxCell><mxCell id="WqlgoDypYTSDNp3f7rmW-100" style="edgeStyle=orthogonalEdgeStyle;rounded=0;orthogonalLoop=1;jettySize=auto;html=1;exitX=0.5;exitY=1;exitDx=0;exitDy=0;entryX=0.5;entryY=0;entryDx=0;entryDy=0;" parent="1c1d494c118603dd-2" source="WqlgoDypYTSDNp3f7rmW-5" target="WqlgoDypYTSDNp3f7rmW-49" edge="1"><mxGeometry relative="1" as="geometry"/></mxCell><mxCell id="WqlgoDypYTSDNp3f7rmW-5" value="Decidir se aceita realizar consulta" style="rounded=1;whiteSpace=wrap;html=1;" parent="1c1d494c118603dd-2" vertex="1"><mxGeometry x="220" y="749" width="120" height="60" as="geometry"/></mxCell><mxCell id="JedhB_cUkPZcnk-IDJmT-16" style="edgeStyle=orthogonalEdgeStyle;rounded=0;orthogonalLoop=1;jettySize=auto;html=1;exitX=1;exitY=0.5;exitDx=0;exitDy=0;entryX=0.5;entryY=1;entryDx=0;entryDy=0;strokeColor=#000000;" parent="1c1d494c118603dd-2" source="WqlgoDypYTSDNp3f7rmW-49" target="JedhB_cUkPZcnk-IDJmT-15" edge="1"><mxGeometry relative="1" as="geometry"/></mxCell><mxCell id="3uhQ0xNSFcSaTIq1J5Yu-6" style="edgeStyle=orthogonalEdgeStyle;rounded=0;orthogonalLoop=1;jettySize=auto;html=1;exitX=0;exitY=0.5;exitDx=0;exitDy=0;entryX=1;entryY=0.5;entryDx=0;entryDy=0;strokeColor=#000000;" parent="1c1d494c118603dd-2" source="WqlgoDypYTSDNp3f7rmW-49" target="WqlgoDypYTSDNp3f7rmW-86" edge="1"><mxGeometry relative="1" as="geometry"><Array as="points"><mxPoint x="230" y="869"/><mxPoint x="230" y="954"/></Array></mxGeometry></mxCell><mxCell id="WqlgoDypYTSDNp3f7rmW-49" value="" style="rhombus;whiteSpace=wrap;html=1;" parent="1c1d494c118603dd-2" vertex="1"><mxGeometry x="261.25" y="849" width="37.5" height="40" as="geometry"/></mxCell><mxCell id="3uhQ0xNSFcSaTIq1J5Yu-5" style="edgeStyle=orthogonalEdgeStyle;rounded=0;orthogonalLoop=1;jettySize=auto;html=1;exitX=0.5;exitY=1;exitDx=0;exitDy=0;entryX=0.5;entryY=0;entryDx=0;entryDy=0;strokeColor=#000000;" parent="1c1d494c118603dd-2" source="WqlgoDypYTSDNp3f7rmW-85" target="WqlgoDypYTSDNp3f7rmW-86" edge="1"><mxGeometry relative="1" as="geometry"/></mxCell><mxCell id="WqlgoDypYTSDNp3f7rmW-85" value="Terminar consulta" style="rounded=1;whiteSpace=wrap;html=1;" parent="1c1d494c118603dd-2" vertex="1"><mxGeometry x="62.5" y="859" width="95" height="50" as="geometry"/></mxCell><mxCell id="WqlgoDypYTSDNp3f7rmW-86" value="" style="ellipse;html=1;shape=endState;fillColor=#000000;strokeColor=#000000;" parent="1c1d494c118603dd-2" vertex="1"><mxGeometry x="95" y="939" width="30" height="30" as="geometry"/></mxCell><mxCell id="WqlgoDypYTSDNp3f7rmW-138" value="[Chegada do utente &lt;br&gt;dentro da tolerância]&amp;nbsp;" style="text;html=1;align=center;verticalAlign=middle;resizable=0;points=[];autosize=1;" parent="1c1d494c118603dd-2" vertex="1"><mxGeometry x="104" y="528" width="130" height="30" as="geometry"/></mxCell><mxCell id="FbqYYx2SHmx5tCG4WL0g-56" value="[Utente não aparece após&amp;nbsp;10min]" style="text;html=1;align=center;verticalAlign=middle;resizable=0;points=[];autosize=1;" parent="1c1d494c118603dd-2" vertex="1"><mxGeometry x="320" y="533" width="190" height="20" as="geometry"/></mxCell><mxCell id="WqlgoDypYTSDNp3f7rmW-139" value="[não aceita]" style="text;html=1;align=center;verticalAlign=middle;resizable=0;points=[];autosize=1;" parent="1c1d494c118603dd-2" vertex="1"><mxGeometry x="197.25" y="840" width="80" height="20" as="geometry"/></mxCell><mxCell id="FbqYYx2SHmx5tCG4WL0g-81" value="[aceita]" style="text;html=1;align=center;verticalAlign=middle;resizable=0;points=[];autosize=1;" parent="1c1d494c118603dd-2" vertex="1"><mxGeometry x="299" y="839" width="50" height="20" as="geometry"/></mxCell><mxCell id="PPlFcc_Is0YEWgRI8YDI-2" style="edgeStyle=orthogonalEdgeStyle;rounded=0;orthogonalLoop=1;jettySize=auto;html=1;exitX=0.75;exitY=1;exitDx=0;exitDy=0;entryX=1;entryY=0.5;entryDx=0;entryDy=0;strokeColor=#000000;" parent="1c1d494c118603dd-2" source="JedhB_cUkPZcnk-IDJmT-15" target="WqlgoDypYTSDNp3f7rmW-4" edge="1"><mxGeometry relative="1" as="geometry"><Array as="points"><mxPoint x="345" y="929"/><mxPoint x="200" y="929"/><mxPoint x="200" y="779"/></Array></mxGeometry></mxCell><mxCell id="JedhB_cUkPZcnk-IDJmT-15" value="" style="rounded=0;whiteSpace=wrap;html=1;fillColor=#000000;direction=west;" parent="1c1d494c118603dd-2" vertex="1"><mxGeometry x="315" y="889" width="120" height="5" as="geometry"/></mxCell><mxCell id="hz0stLer8ANoHS7Fnd0M-8" style="edgeStyle=orthogonalEdgeStyle;rounded=0;orthogonalLoop=1;jettySize=auto;html=1;exitX=0.25;exitY=1;exitDx=0;exitDy=0;strokeColor=#000000;" parent="1c1d494c118603dd-2" source="Jv1jY6s400H1Gnc8sTqj-1" target="WqlgoDypYTSDNp3f7rmW-4" edge="1"><mxGeometry relative="1" as="geometry"><Array as="points"><mxPoint x="234" y="563"/><mxPoint x="110" y="563"/></Array></mxGeometry></mxCell><mxCell id="Jv1jY6s400H1Gnc8sTqj-1" value="Esperar pelo utente" style="html=1;whiteSpace=wrap;rounded=1;dropTarget=0;" parent="1c1d494c118603dd-2" vertex="1"><mxGeometry x="204" y="452" width="136" height="65" as="geometry"/></mxCell><mxCell id="Jv1jY6s400H1Gnc8sTqj-2" value="" style="shape=mxgraph.bpmn.timer_start;perimeter=ellipsePerimeter;html=1;verticalLabelPosition=bottom;verticalAlign=top;outlineConnect=0;" parent="Jv1jY6s400H1Gnc8sTqj-1" vertex="1"><mxGeometry x="1" y="1" width="30" height="30" relative="1" as="geometry"><mxPoint x="-40" y="-15" as="offset"/></mxGeometry></mxCell><mxCell id="3uhQ0xNSFcSaTIq1J5Yu-12" style="edgeStyle=orthogonalEdgeStyle;rounded=0;orthogonalLoop=1;jettySize=auto;html=1;exitX=0;exitY=0.5;exitDx=0;exitDy=0;entryX=0.5;entryY=0;entryDx=0;entryDy=0;strokeColor=#000000;" parent="1c1d494c118603dd-2" source="3uhQ0xNSFcSaTIq1J5Yu-10" target="WqlgoDypYTSDNp3f7rmW-5" edge="1"><mxGeometry relative="1" as="geometry"/></mxCell><mxCell id="3uhQ0xNSFcSaTIq1J5Yu-16" style="edgeStyle=orthogonalEdgeStyle;rounded=0;orthogonalLoop=1;jettySize=auto;html=1;exitX=1;exitY=0.5;exitDx=0;exitDy=0;entryX=0.5;entryY=0;entryDx=0;entryDy=0;strokeColor=#000000;" parent="1c1d494c118603dd-2" source="3uhQ0xNSFcSaTIq1J5Yu-10" target="3uhQ0xNSFcSaTIq1J5Yu-14" edge="1"><mxGeometry relative="1" as="geometry"/></mxCell><mxCell id="3uhQ0xNSFcSaTIq1J5Yu-10" value="" style="rhombus;whiteSpace=wrap;html=1;fillColor=#FFFFFF;" parent="1c1d494c118603dd-2" vertex="1"><mxGeometry x="385" y="689" width="30" height="40" as="geometry"/></mxCell><mxCell id="3uhQ0xNSFcSaTIq1J5Yu-14" value="" style="ellipse;html=1;shape=endState;fillColor=#000000;strokeColor=#000000;" parent="1c1d494c118603dd-2" vertex="1"><mxGeometry x="440" y="764" width="30" height="30" as="geometry"/></mxCell><mxCell id="3uhQ0xNSFcSaTIq1J5Yu-18" value="Utente não&amp;nbsp;&lt;br&gt;aparece]" style="text;html=1;align=center;verticalAlign=middle;resizable=0;points=[];autosize=1;" parent="1c1d494c118603dd-2" vertex="1"><mxGeometry x="410" y="679" width="80" height="30" as="geometry"/></mxCell><mxCell id="3uhQ0xNSFcSaTIq1J5Yu-17" value="[Utente aparece &lt;br&gt;após tolerância]" style="text;html=1;align=center;verticalAlign=middle;resizable=0;points=[];autosize=1;" parent="1c1d494c118603dd-2" vertex="1"><mxGeometry x="285" y="670" width="100" height="30" as="geometry"/></mxCell><mxCell id="soPoK1wTPWns_iYYmyCK-9" style="edgeStyle=orthogonalEdgeStyle;rounded=0;orthogonalLoop=1;jettySize=auto;html=1;exitX=1;exitY=0.5;exitDx=0;exitDy=0;entryX=0;entryY=0.5;entryDx=0;entryDy=0;" parent="1c1d494c118603dd-1" source="WqlgoDypYTSDNp3f7rmW-85" target="WqlgoDypYTSDNp3f7rmW-80" edge="1"><mxGeometry relative="1" as="geometry"><Array as="points"><mxPoint x="190" y="904"/><mxPoint x="190" y="1069"/></Array></mxGeometry></mxCell><mxCell id="JedhB_cUkPZcnk-IDJmT-18" style="edgeStyle=orthogonalEdgeStyle;rounded=0;orthogonalLoop=1;jettySize=auto;html=1;exitX=0.25;exitY=0;exitDx=0;exitDy=0;entryX=0;entryY=0.5;entryDx=0;entryDy=0;strokeColor=#000000;" parent="1c1d494c118603dd-1" source="JedhB_cUkPZcnk-IDJmT-15" target="WqlgoDypYTSDNp3f7rmW-79" edge="1"><mxGeometry relative="1" as="geometry"/></mxCell><mxCell id="FbqYYx2SHmx5tCG4WL0g-14" value="Sistema informático" style="swimlane;html=1;startSize=20;" parent="1c1d494c118603dd-1" vertex="1"><mxGeometry x="490" y="20" width="370" height="1190" as="geometry"/></mxCell><mxCell id="PPlFcc_Is0YEWgRI8YDI-30" style="edgeStyle=orthogonalEdgeStyle;rounded=0;orthogonalLoop=1;jettySize=auto;html=1;exitX=0.25;exitY=1;exitDx=0;exitDy=0;entryX=0.25;entryY=1;entryDx=0;entryDy=0;strokeColor=#000000;" parent="FbqYYx2SHmx5tCG4WL0g-14" source="WqlgoDypYTSDNp3f7rmW-76" target="PPlFcc_Is0YEWgRI8YDI-23" edge="1"><mxGeometry relative="1" as="geometry"/></mxCell><mxCell id="WqlgoDypYTSDNp3f7rmW-76" value="Actualizar ecrãs da sala de espera" style="rounded=1;whiteSpace=wrap;html=1;" parent="FbqYYx2SHmx5tCG4WL0g-14" vertex="1"><mxGeometry x="214" y="310" width="120" height="60" as="geometry"/></mxCell><mxCell id="PPlFcc_Is0YEWgRI8YDI-29" style="edgeStyle=orthogonalEdgeStyle;rounded=0;orthogonalLoop=1;jettySize=auto;html=1;exitX=0.5;exitY=1;exitDx=0;exitDy=0;entryX=0.75;entryY=1;entryDx=0;entryDy=0;strokeColor=#000000;" parent="FbqYYx2SHmx5tCG4WL0g-14" source="WqlgoDypYTSDNp3f7rmW-77" target="PPlFcc_Is0YEWgRI8YDI-23" edge="1"><mxGeometry relative="1" as="geometry"/></mxCell><mxCell id="WqlgoDypYTSDNp3f7rmW-77" value="Registar hora de inicio da consulta" style="rounded=1;whiteSpace=wrap;html=1;" parent="FbqYYx2SHmx5tCG4WL0g-14" vertex="1"><mxGeometry x="54" y="310" width="120" height="60" as="geometry"/></mxCell><mxCell id="WqlgoDypYTSDNp3f7rmW-78" value="Registar falta de comparência do utente" style="rounded=1;whiteSpace=wrap;html=1;" parent="FbqYYx2SHmx5tCG4WL0g-14" vertex="1"><mxGeometry x="124" y="580" width="120" height="60" as="geometry"/></mxCell><mxCell id="WqlgoDypYTSDNp3f7rmW-79" value="Remover registo de falta de comparência do utente" style="rounded=1;whiteSpace=wrap;html=1;" parent="FbqYYx2SHmx5tCG4WL0g-14" vertex="1"><mxGeometry x="125" y="909" width="120" height="60" as="geometry"/></mxCell><mxCell id="WqlgoDypYTSDNp3f7rmW-80" value="Registar hora do fim da consulta" style="rounded=1;whiteSpace=wrap;html=1;" parent="FbqYYx2SHmx5tCG4WL0g-14" vertex="1"><mxGeometry x="125" y="1019" width="120" height="60" as="geometry"/></mxCell><mxCell id="PPlFcc_Is0YEWgRI8YDI-9" style="edgeStyle=orthogonalEdgeStyle;rounded=0;orthogonalLoop=1;jettySize=auto;html=1;exitX=0.25;exitY=0;exitDx=0;exitDy=0;entryX=0.5;entryY=0;entryDx=0;entryDy=0;strokeColor=#000000;" parent="FbqYYx2SHmx5tCG4WL0g-14" source="PPlFcc_Is0YEWgRI8YDI-7" target="WqlgoDypYTSDNp3f7rmW-77" edge="1"><mxGeometry relative="1" as="geometry"/></mxCell><mxCell id="PPlFcc_Is0YEWgRI8YDI-10" style="edgeStyle=orthogonalEdgeStyle;rounded=0;orthogonalLoop=1;jettySize=auto;html=1;exitX=0.25;exitY=1;exitDx=0;exitDy=0;entryX=0.5;entryY=0;entryDx=0;entryDy=0;strokeColor=#000000;" parent="FbqYYx2SHmx5tCG4WL0g-14" source="PPlFcc_Is0YEWgRI8YDI-7" target="WqlgoDypYTSDNp3f7rmW-76" edge="1"><mxGeometry relative="1" as="geometry"><Array as="points"><mxPoint x="144" y="240"/><mxPoint x="144" y="278"/><mxPoint x="274" y="278"/></Array></mxGeometry></mxCell><mxCell id="PPlFcc_Is0YEWgRI8YDI-7" value="" style="rounded=0;whiteSpace=wrap;html=1;fillColor=#000000;direction=west;" parent="FbqYYx2SHmx5tCG4WL0g-14" vertex="1"><mxGeometry x="-376" y="240" width="680" height="5" as="geometry"/></mxCell><mxCell id="PPlFcc_Is0YEWgRI8YDI-23" value="" style="rounded=0;whiteSpace=wrap;html=1;fillColor=#000000;direction=west;" parent="FbqYYx2SHmx5tCG4WL0g-14" vertex="1"><mxGeometry x="64" y="410" width="240" height="5" as="geometry"/></mxCell><mxCell id="3uhQ0xNSFcSaTIq1J5Yu-11" style="edgeStyle=orthogonalEdgeStyle;rounded=0;orthogonalLoop=1;jettySize=auto;html=1;exitX=0.5;exitY=1;exitDx=0;exitDy=0;entryX=0.5;entryY=0;entryDx=0;entryDy=0;strokeColor=#000000;" parent="1c1d494c118603dd-1" source="WqlgoDypYTSDNp3f7rmW-78" target="3uhQ0xNSFcSaTIq1J5Yu-10" edge="1"><mxGeometry relative="1" as="geometry"/></mxCell></root></mxGraphModel></diagram></mxfile>